<?xml version="1.0" encoding="UTF-8" standalone="no"?>
<!-- Created with Inkscape (http://www.inkscape.org/) -->

<svg
   xmlns:dc="http://purl.org/dc/elements/1.1/"
   xmlns:cc="http://creativecommons.org/ns#"
   xmlns:rdf="http://www.w3.org/1999/02/22-rdf-syntax-ns#"
   xmlns:svg="http://www.w3.org/2000/svg"
   xmlns="http://www.w3.org/2000/svg"
   xmlns:sodipodi="http://sodipodi.sourceforge.net/DTD/sodipodi-0.dtd"
   xmlns:inkscape="http://www.inkscape.org/namespaces/inkscape"
   width="744.09448"
   height="524.40942"
   id="svg2"
   version="1.1"
   inkscape:version="0.48.5 r10040"
   sodipodi:docname="fm42_logo_v0.svg"
   inkscape:export-filename="/Users/zoomq/Sites/fm42.org/comments/design/fm42_logo_v0_h32.png"
   inkscape:export-xdpi="6.2586927"
   inkscape:export-ydpi="6.2586927">
  <defs
     id="defs4">
    <filter
       inkscape:collect="always"
       id="filter3787">
      <feGaussianBlur
         inkscape:collect="always"
         stdDeviation="4.2"
         id="feGaussianBlur3789" />
    </filter>
  </defs>
  <sodipodi:namedview
     id="base"
     pagecolor="#ffffff"
     bordercolor="#666666"
     borderopacity="1.0"
     inkscape:pageopacity="0.0"
     inkscape:pageshadow="2"
     inkscape:zoom="1.5255256"
     inkscape:cx="334.02756"
     inkscape:cy="262.20471"
     inkscape:document-units="px"
     inkscape:current-layer="layer2"
     showgrid="false"
     inkscape:window-width="1646"
     inkscape:window-height="1006"
     inkscape:window-x="4"
     inkscape:window-y="0"
     inkscape:window-maximized="1" />
  <metadata
     id="metadata7">
    <rdf:RDF>
      <cc:Work
         rdf:about="">
        <dc:format>image/svg+xml</dc:format>
        <dc:type
           rdf:resource="http://purl.org/dc/dcmitype/StillImage" />
        <dc:title></dc:title>
      </cc:Work>
    </rdf:RDF>
  </metadata>
  <g
     inkscape:label="board"
     inkscape:groupmode="layer"
     id="layer1"
     transform="translate(0,-527.95272)">
    <rect
       style="opacity:0.80000000000000004;fill:#000000;stroke:#1a1a1a;stroke-width:20;stroke-linecap:round;stroke-linejoin:round;stroke-miterlimit:4;stroke-opacity:1;stroke-dasharray:none;filter:url(#filter3787)"
       id="rect3005"
       width="420"
       height="420"
       x="162.04724"
       y="580.15741"
       ry="42.608265" />
  </g>
  <g
     inkscape:groupmode="layer"
     id="layer2"
     inkscape:label="logo">
    <path
       inkscape:connector-curvature="0"
       id="path3835"
       style="font-size:40px;font-style:normal;font-variant:normal;font-weight:normal;font-stretch:normal;text-align:start;line-height:125%;letter-spacing:0px;word-spacing:0px;writing-mode:lr-tb;text-anchor:start;fill:#b3b3b3;fill-opacity:1;stroke:none;font-family:'喜鹊古字典简体';-inkscape-font-specification:'喜鹊古字典简体'"
       d="m 346.09759,59.275723 c 2.51661,2.99e-4 7.10605,3.530809 13.76824,10.59118 6.80986,7.061154 13.10172,14.744967 18.87581,23.051412 5.92154,8.099605 8.88248,13.291385 8.88272,15.575455 -2.4e-4,2.28471 -1.11086,5.50356 -3.33105,9.65656 -2.07283,4.15379 -4.44163,7.89194 -7.10618,11.2143 -2.66509,3.11535 -4.81172,4.67295 -6.44,4.67263 -1.18451,3.2e-4 -3.18321,-0.83094 -5.99578,-2.49206 -2.6651,-1.66111 -4.2935,-2.6994 -4.88552,-3.11503 -7.69855,-4.77613 -15.1008,-8.72195 -22.20685,-11.83728 -7.10627,-3.32251 -14.73059,-5.19143 -22.87288,-5.60707 -21.31876,-0.41469 -40.34248,1.45455 -57.07154,5.60707 -1.62852,8.72243 -2.44282,22.01346 -2.44271,39.87283 l 0.44456,73.20394 c 5.32953,0.41627 9.69692,0.62362 13.10207,0.62362 9.47475,3.2e-4 17.39512,-0.83095 23.76122,-2.49206 2.22055,-0.83095 6.43989,-3.634 12.65785,-8.4106 3.84905,-3.11487 6.80999,-5.29543 8.88272,-6.54172 2.0725,-1.2456 3.77501,-1.76491 5.10757,-1.55821 2.36859,0.41467 6.884,4.25746 13.54619,11.52563 6.80987,7.26883 13.02772,14.95263 18.65363,23.0516 5.77362,7.89162 8.58642,13.18721 8.43863,15.88678 -2.4e-4,2.49218 -1.11085,5.50339 -3.33106,9.03374 -2.22086,3.53048 -4.81162,6.64552 -7.77232,9.34505 -2.81303,2.49222 -5.03378,3.73832 -6.66206,3.73819 -1.18452,1.3e-4 -3.33116,-1.34932 -6.44002,-4.04966 -5.47778,-3.9455 -10.65936,-7.16451 -15.54465,-9.65673 -4.7376,-2.69953 -10.58547,-4.67228 -17.54339,-5.91857 -1.1845,-0.20738 -4.29348,-0.31099 -9.32693,-0.31099 -10.65936,1.6e-4 -23.09506,0.6236 -37.3074,1.86908 l 0.66627,108.71562 c -1.2e-4,11.21432 0.81409,19.93659 2.4427,26.16664 1.62841,6.23005 4.4413,11.00649 8.43863,14.32933 3.99706,3.32268 9.77079,6.02238 17.32131,8.09913 4.29316,1.24564 7.40212,3.11503 9.32683,5.60706 2.0725,2.49206 3.10886,5.39943 3.10898,8.72227 -1.2e-4,3.94566 -1.18453,7.476 -3.5531,10.59117 -2.36892,3.32269 -4.88563,4.98412 -7.55039,4.98412 -0.88798,0 -3.92329,-0.72727 -9.10477,-2.18058 -8.7348,-2.07672 -16.35908,-3.73815 -22.873,-4.98409 -6.51403,-1.24564 -13.32412,-1.86908 -20.43019,-1.86908 -11.69561,0 -26.42608,2.38823 -44.19151,7.16467 -1.62852,0.41467 -3.25702,0.83095 -4.88552,1.24562 -1.48048,0.41468 -2.8128,0.62362 -3.99721,0.62362 -2.81289,0 -5.32961,-1.66143 -7.55025,-4.98411 -2.07262,-3.32285 -3.10899,-7.06084 -3.10899,-11.2143 0,-3.11504 0.74018,-5.91857 2.22064,-8.41062 1.62851,-2.28439 3.99719,-4.04966 7.10617,-5.29559 13.47217,-5.19176 20.72638,-21.39017 21.76275,-48.5951 2.0725,-70.19257 3.10886,-128.44422 3.10886,-174.75506 0,-51.50212 -1.48048,-82.13354 -4.4413,-91.89442 -1.33244,-4.36065 -3.03495,-7.26818 -5.10757,-8.722102 -2.07262,-1.452958 -4.51544,-2.180232 -7.32823,-2.180555 l -4.88553,0.310995 c -1.6285,3.21e-4 -2.8129,-0.310995 -3.55307,-0.934619 -0.74018,-0.830947 -1.11086,-2.284066 -1.11086,-4.361132 0,-3.530002 1.48049,-7.579656 4.44143,-12.148755 2.96083,-4.568477 6.36588,-8.410303 10.21514,-11.525798 3.84915,-3.322358 6.88401,-4.983629 9.10478,-4.984112 2.07261,4.83e-4 5.03343,1.245636 8.88271,3.738153 3.99719,2.28471 9.77093,5.815218 17.32132,10.591179 l 5.10746,3.426675 0.88799,0.623625 c 2.66475,0.20739 7.47614,0.312584 14.4344,0.310993 14.06419,3.23e-4 34.5684,-1.141964 61.51284,-3.426513 7.25398,-0.622011 13.10184,-2.284066 17.54335,-4.984088 4.58924,-2.907046 8.88251,-6.33372 12.87992,-10.279863 0.59237,-0.414667 1.48025,-1.141964 2.66477,-2.180393 1.3322,-1.245636 2.44258,-1.868778 3.33101,-1.869077" />
    <path
       inkscape:connector-curvature="0"
       id="path3837"
       style="font-size:40px;font-style:normal;font-variant:normal;font-weight:normal;font-stretch:normal;text-align:start;line-height:125%;letter-spacing:0px;word-spacing:0px;writing-mode:lr-tb;text-anchor:start;fill:#cccccc;fill-opacity:1;stroke:none;font-family:'喜鹊古字典简体';-inkscape-font-specification:'喜鹊古字典简体'"
       d="m 542.38109,440.07414 c 0.24857,-0.0829 0.62204,-0.12428 1.12032,-0.12428 0.91266,6e-5 1.65949,0.29062 2.24062,0.87136 0.66372,0.49776 0.99564,1.16187 0.99584,1.99168 -2e-4,1.49379 -0.91305,2.78006 -2.73858,3.85889 -2.57274,1.32776 -7.13704,2.69709 -13.69282,4.10783 -6.47311,1.4938 -11.45231,2.24063 -14.93759,2.24069 -6.63908,-6e-5 -9.95853,-4.85473 -9.9584,-14.56418 0.16572,-1.65976 0.28999,-5.85057 0.37348,-12.5725 0.16571,-6.80485 0.24857,-13.60977 0.24921,-20.41468 -1.3e-4,-4.7302 -0.0447,-8.00815 -0.12429,-9.83393 -0.16635,-6.38995 -0.49775,-11.41063 -0.99584,-15.06206 -0.41491,-3.65137 -1.82584,-6.92933 -4.2323,-9.83393 -2.40678,-2.90448 -6.26567,-4.35672 -11.57666,-4.35677 -8.13281,5e-5 -14.48127,4.64726 -19.04543,13.94175 l -0.24919,49.54298 c -1.3e-4,3.90037 0.33205,6.63895 0.99584,8.21573 0.74677,1.49372 1.82558,2.24062 3.23646,2.24062 0.41491,0 1.0372,-0.0829 1.86721,-0.2492 0.24856,-0.0829 0.62204,-0.12428 1.12031,-0.12428 0.91272,6e-5 1.65963,0.29062 2.24062,0.87136 0.58062,0.49776 0.87124,1.16187 0.87137,1.99168 -1.3e-4,1.57678 -0.91299,2.86305 -2.73858,3.85889 -2.65566,1.41081 -6.6805,2.82155 -12.07455,4.2323 -5.39423,1.41081 -9.70951,2.11616 -12.94591,2.11622 -6.55604,-6e-5 -9.83399,-4.85473 -9.83393,-14.56418 0.16571,-1.74274 0.29063,-6.141 0.37348,-13.19486 0.16571,-7.13684 0.2492,-14.23219 0.2492,-21.28611 l -0.12428,-8.34014 c -0.16634,-6.38995 -0.49776,-11.45212 -0.99584,-15.18654 -0.49776,-3.81733 -1.99174,-7.21975 -4.48131,-10.2074 -2.40665,-3.07038 -6.22404,-4.60566 -11.45212,-4.60573 -4.64734,7e-5 -8.54772,1.16187 -11.70114,3.48541 -3.15354,2.32374 -5.72609,5.31126 -7.71777,8.96257 -0.0829,0.99589 -0.12428,2.61416 -0.12428,4.85472 l 0,3.73442 c -0.0829,2.24068 -0.12428,7.71777 -0.12428,16.43132 -7e-5,8.54771 0.0382,15.68455 0.12428,21.41058 -6e-5,5.31119 0.0829,8.92107 0.2492,10.82977 0.16571,1.82571 0.70534,3.23646 1.61827,4.2323 0.91279,0.99584 2.57254,1.82571 4.97919,2.48963 4.64721,1.49373 6.97081,3.36093 6.97088,5.60156 -7e-5,1.24478 -0.62268,2.32361 -1.86721,3.23646 -1.24484,0.91286 -2.6141,1.36933 -4.10783,1.36933 -0.33206,0 -1.82578,-0.24921 -4.48125,-0.7469 -6.05808,-1.41075 -11.20324,-2.11615 -15.43555,-2.11615 -6.30702,0 -13.31939,0.74689 -21.0371,2.24062 -2.24062,0.41491 -3.69293,0.62267 -4.35677,0.62267 -1.49379,0 -2.78007,-0.53918 -3.85889,-1.61825 -0.99584,-0.99585 -1.49379,-2.11616 -1.49379,-3.36094 0,-1.16181 0.45634,-2.19913 1.36932,-3.11199 0.91279,-0.91286 2.32361,-1.61827 4.2323,-2.11615 2.90453,-0.7469 5.02069,-1.74274 6.34845,-2.98752 1.41075,-1.24485 2.3651,-2.98752 2.86306,-5.22821 0.58061,-2.24062 0.99583,-5.60155 1.24477,-10.08287 l 0.62268,-11.8256 c 0.74684,-13.44374 1.12032,-22.57227 1.12032,-27.38557 0,-8.63057 -0.82988,-14.93753 -2.48957,-18.92095 -0.91293,-2.07459 -2.15771,-3.44385 -3.73442,-4.10782 -1.57677,-0.66386 -3.56845,-1.12026 -5.97504,-1.36933 -1.82571,-0.2492 -3.15347,-0.53919 -3.98335,-0.87137 -0.7469,-0.33205 -1.12031,-1.03719 -1.12031,-2.11615 0,-1.41068 0.82981,-3.02888 2.48956,-4.85472 1.65975,-1.82559 3.56845,-3.36081 5.7261,-4.60572 2.15764,-1.32771 3.81739,-1.99162 4.97919,-1.99168 2.24062,6e-5 8.13269,2.11621 17.67618,6.34845 3.23639,1.57684 6.2654,3.36106 9.08702,5.35268 2.8215,1.90876 4.81317,3.61001 5.97504,5.10367 4.31522,-4.48118 9.08697,-8.13261 14.31518,-10.95423 5.22807,-2.90448 10.53926,-4.35672 15.93343,-4.35685 8.96249,1.3e-4 15.60138,1.99182 19.9168,5.97504 4.3982,3.90051 7.30274,8.75517 8.71361,14.56418 3.23634,-5.72603 7.84211,-10.58069 13.81728,-14.56418 6.0579,-3.98322 12.9043,-5.97491 20.53915,-5.97504 8.46455,1.3e-4 14.93747,1.99182 19.41891,5.97504 4.5641,3.98349 7.51013,8.42325 8.83809,13.3194 1.41061,4.89628 2.11596,9.502 2.11615,13.81729 l 0,48.79614 c -1.9e-4,3.81739 0.66372,6.63888 1.99167,8.46461 1.41063,1.82571 3.07031,2.73857 4.9792,2.73857 0.41491,0 0.95417,-0.0829 1.61827,-0.2492" />
    <path
       inkscape:connector-curvature="0"
       id="path3846"
       style="font-size:40px;font-style:normal;font-variant:normal;font-weight:bold;font-stretch:normal;text-align:start;line-height:125%;letter-spacing:0px;word-spacing:0px;writing-mode:lr-tb;text-anchor:start;fill:#e6e6e6;fill-opacity:1;stroke:none;font-family:'喜鹊古字典简体';-inkscape-font-specification:'喜鹊古字典简体 Bold'"
       d="m 506.2137,293.54227 c 3.553,0.75328 6.13707,1.88426 7.75228,3.39166 1.72263,1.50734 2.58393,3.1762 2.58407,5.00666 -1.4e-4,2.15335 -0.96914,4.09146 -2.90705,5.81415 -1.83054,1.83046 -3.82247,2.74561 -5.97572,2.74561 -0.64586,0 -2.69186,-0.37709 -6.13724,-1.13049 -4.95295,-1.18438 -9.79812,-2.20728 -14.53551,-3.06866 -4.7376,-0.75332 -10.06728,-1.13054 -15.98901,-1.13054 -6.02964,0 -12.00531,0.37709 -17.92712,1.13054 -5.81425,0.86138 -12.11299,1.88428 -18.8962,3.06866 -4.5222,0.75331 -7.1601,1.13049 -7.91375,1.13049 -2.26109,0 -4.30686,-0.969 -6.13724,-2.90708 -1.7227,-1.83039 -2.58406,-3.82231 -2.58406,-5.97568 0,-1.61509 0.59203,-3.0148 1.77661,-4.19919 1.29196,-1.18439 3.23004,-1.99187 5.81415,-2.4226 6.46024,-0.96896 11.41299,-1.8842 14.85854,-2.74559 3.44542,-0.8613 6.35247,-2.4225 8.72134,-4.68361 2.47631,-2.26108 3.76836,-5.54497 3.87613,-9.85185 0.10747,-1.93806 0.26861,-8.45209 0.48456,-19.54217 l -33.91613,-0.16111 c -3.66093,0 -6.6218,0.16111 -8.88282,0.48456 -2.15343,0.32323 -4.57605,0.75333 -7.26778,1.29205 -3.87615,0.86138 -7.37546,1.29212 -10.49784,1.29206 -3.23016,6e-5 -5.81426,-1.23815 -7.75229,-3.71465 -1.83036,-2.47634 -3.1224,-5.16811 -3.87612,-8.07525 -0.6458,-2.9071 -0.96906,-5.16811 -0.96906,-6.78321 0,-0.86133 0.37709,-1.88421 1.13053,-3.06869 0.75332,-1.29195 1.88429,-2.96082 3.39166,-5.00658 0.4308,-0.75329 0.91516,-1.50736 1.45353,-2.26109 0.64584,-0.86132 1.23824,-1.72268 1.77655,-2.58409 6.35254,-11.09002 17.17338,-29.98608 32.4626,-56.6885 15.39688,-26.80974 23.90278,-41.72204 25.51788,-44.73704 0.96899,-1.72255 1.88419,-4.84493 2.74561,-9.36731 0.75331,-3.7683 1.56118,-6.5677 2.4226,-8.39823 0.96896,-1.83029 2.47631,-2.74543 4.52219,-2.74566 2.36867,2.3e-4 6.89077,0.96929 13.56639,2.90715 6.6755,1.83051 12.81271,3.8763 18.41165,6.13714 5.59875,2.15361 8.39822,3.76872 8.39832,4.84519 -1e-4,1.07688 -0.6458,3.06883 -1.93813,5.97572 -1.39977,3.44565 -2.5303,6.62191 -3.39156,9.52879 -0.86147,2.90727 -1.29221,6.08359 -1.29205,9.52889 l -0.80789,90.44314 7.42929,0 c 2.69165,0 4.84503,-0.53834 6.46022,-1.61516 1.61494,-1.07661 3.0685,-2.36865 4.36062,-3.87611 1.29196,-1.61494 2.15326,-2.42249 2.58408,-2.42259 1.07665,1e-4 2.15328,1.66904 3.23016,5.0067 1.18422,3.33788 1.77647,6.78327 1.77652,10.33635 -5e-5,3.98386 -0.48456,7.37553 -1.45351,10.17487 -0.96914,2.69181 -2.31502,4.03769 -4.03764,4.03762 l -20.51121,-0.16111 0,8.07527 c 0.10758,7.75234 0.43079,13.13585 0.96906,16.15059 0.64581,3.01474 2.09943,5.27586 4.36059,6.78322 2.3687,1.50738 6.62164,2.85334 12.75896,4.03762 m -52.81234,-56.68846 c 0.43085,-29.93226 0.64583,-52.97364 0.64583,-69.12431 -10e-5,-14.85842 -0.16111,-23.47199 -0.48457,-25.84089 -4.52221,8.07541 -13.02819,23.47229 -25.51781,46.1906 -12.48988,22.71847 -19.59609,36.06965 -21.31877,40.05338 -0.64581,1.61512 -0.96907,3.01483 -0.96907,4.19912 0,2.79948 1.34589,4.19922 4.03763,4.19912 l 43.60653,0.32323" />
    <path
       inkscape:connector-curvature="0"
       id="path3848"
       style="font-size:40px;font-style:normal;font-variant:normal;font-weight:bold;font-stretch:normal;text-align:start;line-height:125%;letter-spacing:0px;word-spacing:0px;writing-mode:lr-tb;text-anchor:start;fill:#f9f9f9;fill-opacity:1;stroke:none;font-family:'喜鹊古字典简体';-inkscape-font-specification:'喜鹊古字典简体 Bold'"
       d="m 557.61821,97.036752 c -8e-5,-2.999276 -0.79158,-6.665075 -2.37447,-10.997532 -1.49974,-4.415603 -4.04081,-8.289735 -7.62331,-11.622437 -3.49925,-3.415745 -8.03994,-5.123733 -13.62193,-5.123867 -6.16534,1.34e-4 -11.33086,1.499766 -15.49657,4.498981 -4.08243,2.91616 -7.08175,6.290439 -8.99799,10.122786 -1.91627,3.749251 -2.87438,6.831899 -2.87438,9.247938 0,1.416443 -0.7915,2.749453 -2.37443,3.999103 -1.58302,1.166466 -2.99935,1.749696 -4.24906,1.749616 -1.24976,8e-5 -2.3745,-0.54132 -3.37428,-1.624668 -0.91646,-1.083004 -1.37466,-2.499337 -1.37466,-4.249024 0,-4.415584 0.99975,-10.289292 2.99932,-17.621086 2.08287,-7.33155 6.3319,-14.20503 12.74717,-20.620429 6.41521,-6.498393 15.53818,-9.747674 27.36889,-9.747796 12.33049,1.22e-4 22.20329,2.207963 29.61843,6.623499 7.41491,4.415841 12.62206,9.789628 15.62147,16.121399 3.08256,6.332076 4.62386,12.663993 4.62398,18.995758 -1.2e-4,7.915043 -2.49952,15.996557 -7.49835,24.244637 -4.99895,8.24822 -10.70604,15.74652 -17.12118,22.49498 -6.41528,6.66525 -14.28852,14.24686 -23.61968,22.74492 -5.41558,4.91559 -9.33131,8.58147 -11.74742,10.99756 -2.33285,2.41617 -3.49926,4.20739 -3.49926,5.3738 0,1.16646 0.79151,1.99961 2.37452,2.49946 1.58294,0.41655 3.95741,0.62514 7.1234,0.62514 3.08258,5e-5 6.74846,-0.12466 10.99757,-0.37495 1.49956,0 3.91572,-0.0832 7.24835,-0.2501 7.0817,-0.25012 12.2472,-0.91648 15.4966,-1.99957 3.33249,-1.08308 5.62363,-2.99933 6.87341,-5.74872 1.24962,-2.83267 1.87453,-7.24839 1.87458,-13.24705 -5e-5,-0.91641 0.16639,-1.58294 0.49972,-1.99954 0.41655,-0.49972 0.91636,-0.74978 1.49964,-0.74986 0.58291,8e-5 1.04138,0.25011 1.37474,0.74986 0.41655,0.41655 0.62449,1.04142 0.62514,1.87458 -6e-5,4.49904 0.29178,8.03987 0.87481,10.62258 0.58292,2.58281 1.2913,4.49904 2.12454,5.74875 0.83307,1.16647 1.99948,2.41618 3.49922,3.74917 1.08298,0.91647 1.99944,1.7913 2.74942,2.62438 0.74973,0.83324 1.41619,1.87467 1.99955,3.12438 1.16628,2.49938 1.7495,5.24881 1.74956,8.24814 -6e-5,3.41587 -0.74992,6.37354 -2.24946,8.87301 -1.49977,2.49943 -3.62429,3.74912 -6.37358,3.74912 -0.49972,0 -2.29125,-0.20863 -5.37385,-0.62513 -11.33084,-1.74961 -20.91206,-2.62445 -28.74354,-2.62445 -7.24849,0 -14.3302,0.25011 -21.24531,0.74986 -6.91513,0.58292 -14.24682,1.24971 -21.9951,1.99957 l -4.99889,0.49972 c -1.08309,0 -2.49942,-0.41656 -4.24903,-1.24972 -1.74964,-0.74984 -3.33258,-1.87458 -4.74897,-3.37421 -1.33301,-1.4997 -1.99957,-3.29093 -1.99957,-5.37385 0,-3.33257 2.04122,-6.99837 6.12365,-10.99756 l 8.62309,-8.24814 c 10.49763,-9.91439 19.1624,-18.49584 25.99423,-25.74427 6.83175,-7.33164 12.70545,-15.24654 17.6211,-23.74468 4.99881,-8.58137 7.49822,-16.91283 7.4983,-24.994424" />
  </g>
</svg>
